# xmcd
#
# Track frame offsets: 
#        150
#        18875
#        38240
#        56570
#        82780
#        99780
#        113625
#        133725
#        149780
#        161965
#        174355
#        192525
#
# Disc length: 2822 seconds
#
# Revision: 0
# Processed by: cddbd v1.5.1PL2 Copyright (c) Steve Scherf et al.
# Submitted via: ExactAudioCopy v0.95b4
#
DISCID=9d0b040c
DTITLE=Talisman - Five Out Of Five: Live In Japan
DYEAR=1993
DGENRE=Hard Rock
TTITLE0=Mysterious (This Time It's Serious)
TTITLE1=Standin' On Fire
TTITLE2=Comin' Home
TTITLE3=If U Would Only Be My Friend
TTITLE4=I'll Be Waiting
TTITLE5=Time After Time
TTITLE6=All I Want
TTITLE7=Dangerous
TTITLE8=U Done Me Wrong
TTITLE9=Break Your Chains
TTITLE10=Just Between Us
TTITLE11=All Or Nothing
EXTD=
EXTT0=
EXTT1=
EXTT2=
EXTT3=
EXTT4=
EXTT5=
EXTT6=
EXTT7=
EXTT8=
EXTT9=
EXTT10=
EXTT11=
PLAYORDER=
